<?xml version="1.0" encoding="UTF-8"?>
<svg id="Layer_2" data-name="Layer 2" xmlns="http://www.w3.org/2000/svg" viewBox="0 0 229.79 178.72">
  <defs>
    <style>
      .cls-1 {
        fill: #fff;
        stroke-width: .5px;
      }

      .cls-1, .cls-2 {
        stroke: #fff;
        stroke-miterlimit: 10;
      }

      .cls-2 {
        fill: none;
        stroke-width: 10px;
      }

      .cls-3 {
        fill: #f7931e;
      }
    </style>
  </defs>
  <g id="Layer_1-2" data-name="Layer 1">
    <path class="cls-3" d="M39.1,67.02c-.4-3.19-.8-6.38-.8-9.57C38.3,25.93,64.23,0,95.74,0c21.94,0,41.49,12.37,51.06,30.72,5.59-3.19,11.97-5.19,19.15-5.19,21.14,0,38.3,17.15,38.3,38.3,0,6.38-1.6,12.37-3.99,17.55,17.55,7.98,29.52,25.53,29.52,46.28,0,28.32-22.74,51.06-51.06,51.06H57.45c-31.52,0-57.45-25.53-57.45-57.45,0-25.13,16.36-46.68,39.1-54.25Z"/>
    <path class="cls-1" d="M80.16,86.6c-1.69-1.83-1.69-4.64,0-6.47l13.5-13.5c1.41-1.27,3.23-1.69,4.92-.98s2.81,2.39,2.81,4.22v9h45c2.53,0,4.5,1.97,4.5,4.5s-1.97,4.5-4.5,4.5h-45v9c0,1.83-1.12,3.52-2.81,4.22s-3.52.28-4.92-.98l-13.5-13.5ZM149.63,122.6l-13.5,13.5c-1.41,1.27-3.23,1.69-4.92.98s-2.81-2.39-2.81-4.22v-9h-45c-2.53,0-4.5-1.97-4.5-4.5s1.97-4.5,4.5-4.5h45v-9c0-1.83,1.12-3.52,2.81-4.22s3.66-.28,4.92.98l13.5,13.5c1.69,1.83,1.69,4.64,0,6.47Z"/>
    <circle class="cls-2" cx="114.89" cy="101.36" r="55"/>
  </g>
</svg>